<svg xmlns:xlink="http://www.w3.org/1999/xlink" xmlns="http://www.w3.org/2000/svg" viewBox="0 0 370 203.6790388393909" height="203.6790388393909" width="370" style="width: 370px; height: 203.679px; position: absolute; top: 50%; left: 50%; z-index: 0; cursor: pointer; overflow: visible; transform: translate(-50%, -50%) scale(0.518919);"><defs id="SvgjsDefs3687"></defs><g id="SvgjsG3688" featurekey="monogramFeature-0" transform="matrix(11.894673353518215,0,0,11.894673353518215,-4.28360475271479,-52.42767604230227)" fill="#5171FF"><path d="M6.3636 15.3798 l-0.002871 -0.0024804 c0.0009961 -0.00080078 0.0018555 -0.0016797 0.002832 -0.0025196 c0.000058594 0.0016797 -0.000039062 0.0033204 0.000039062 0.005 z M4.6426 11.7224 l-0.0025 0.0023632 c0.00041016 -0.00054688 0.00082032 -0.0011133 0.0012305 -0.0016797 l0.0011719 -0.00064454 l0 0 c0.000058594 -0.000019531 0.000078126 -0.000019531 0.000097656 -0.000039062 z M4.1572 12.2076 l-0.0024414 0.0022462 c0.000097656 -0.00058594 0.00017578 -0.0011719 0.00027344 -0.0017578 c0.00074218 -0.00011719 0.0013867 -0.0003711 0.0021288 -0.00048828 l0 0 l0.000039062 0 z M4.7718 12.036999999999999 c0 0 0.0028516 -0.0027344 0.0028516 -0.0027148 c0.00015625 0.0003125 0.0002539 0.00060546 0.0003711 0.00091796 c-0.0010742 0.00058594 -0.0021484 0.0011914 -0.0032226 0.0017969 z M3.4964 13.701 l-0.0023438 -0.0027734 c0.0017578 -0.00085938 0.003379 -0.0018555 0.0051172 -0.0027344 c-0.00095704 0.0018164 -0.0018164 0.0036718 -0.0027734 0.0055078 c0.000019531 0.000019531 0.000078126 0.000039062 0.000097656 0.000097656 z M8.4112 5.984999999999999 c0.30936 0.29432 0.36756 0.68894 0.35434 1.0947 c-0.007871 0.2407 -0.081562 0.47424 -0.090038 0.71642 c-0.0052148 0.14813 -0.077148 0.28176 -0.12762 0.41866 c-0.20454 0.55472 -0.42326 1.1016 -0.71408 1.6205 c-0.2107 0.37596 -0.41 0.75888 -0.62666 1.1318 c-0.12857 0.22132 -0.26186 0.44034 -0.40204 0.65448 c-0.37276 0.56932 -0.75058 1.1353 -1.1258 1.7029 c-0.048594 0.073536 -0.098262 0.14566 -0.1624 0.20702 c-0.026856 0.025684 -0.054082 0.059804 -0.038126 0.096212 c0.020878 0.047618 0.074942 0.050078 0.11527 0.040176 c0.14982 -0.036758 0.30396 -0.045704 0.45416 -0.075274 c0.29006 -0.05713 0.53918 0.016504 0.79398 0.16131 c0.31874 0.18115 0.62248 0.3846 0.93558 0.5737 c0.1065 0.064316 0.20514 0.1374 0.2969 0.22418 c0.24836 0.23492 0.294 0.5281 0.26296 0.84552 c-0.061582 0.62954 -0.34766 1.1667 -0.67126 1.6967 c-0.22892 0.375 -0.49944 0.71684 -0.75876 1.0675 c-0.15598 0.21094 -0.3596 0.38596 -0.52628 0.58982 c-0.18998 0.2324 -0.40716 0.44038 -0.62678 0.63814 c-0.33602 0.3026 -0.59554 0.68488 -0.9815 0.93322 c-0.13371 0.2392 -0.43828 0.29158 -0.5757 0.52672 c-0.36474 0.22584 -0.6787 0.53978 -1.1158 0.64024 c-0.1001 0.023008 -0.19824 0.054414 -0.30086 0.036036 c-0.099824 0.015137 -0.19047 -0.0048438 -0.27798 -0.05039 c-0.35028 -0.18227 -0.70058 -0.3645 -1.0526 -0.54328 c-0.14734 -0.074824 -0.22332 -0.22474 -0.35392 -0.3203 c-0.097012 -0.070956 -0.063516 -0.17471 0.061464 -0.20944 c0.17082 -0.04748 0.33336 -0.10732 0.48446 -0.20088 c0.16633 -0.10299 0.17043 -0.10883 0.14412 -0.2971 c-0.074942 -0.53674 -0.15057 -1.0734 -0.22142 -1.6107 c-0.017188 -0.13031 -0.0098632 -0.2638 -0.026308 -0.39428 c-0.050176 -0.39774 -0.11666 -0.79364 -0.15787 -1.1922 c-0.056386 -0.54546 -0.12381 -1.0896 -0.14787 -1.6389 c-0.018164 -0.41498 -0.098632 -0.82686 -0.12928 -1.2418 c-0.035566 -0.48144 -0.041308 -0.96504 -0.070546 -1.4471 c-0.02957 -0.48798 -0.012383 -0.97812 -0.07289 -1.4647 c-0.018789 -0.15127 -0.0061718 -0.30614 -0.0064648 -0.45732 c-0.00080078 -0.40916 -0.095722 -0.81584 -0.024532 -1.2272 c0.02795 -0.16156 -0.0097852 -0.18889 -0.16752 -0.24832 c-0.10172 -0.03832 -0.19965 -0.08877 -0.29496 -0.14156 c-0.085352 -0.047286 -0.11547 -0.12654 -0.10416 -0.22392 c0.012363 -0.10639 0.065312 -0.19373 0.1249 -0.27762 c0.16984 -0.2391 0.26346 -0.50128 0.25042 -0.79768 c-0.0045704 -0.10365 0.0088476 -0.20522 0.05045 -0.30114 c0.058204 -0.13416 0.11738 -0.16244 0.2601 -0.12748 c0.0070898 0.0017383 0.014023 0.0042382 0.021054 0.00625 c0.32612 0.092538 0.32678 0.093046 0.5285 -0.16391 c0.041484 -0.052832 0.089512 -0.096778 0.14549 -0.13227 c0.094434 -0.059864 0.16779 -0.13918 0.23332 -0.22944 c0.04248 -0.058516 0.091934 -0.11809 0.15148 -0.15686 c0.14137 -0.092012 0.25752 -0.2148 0.38968 -0.3136 c0.3501 -0.26162 0.69576 -0.53008 1.0614 -0.77148 c0.23708 -0.15648 0.4625 -0.33024 0.71826 -0.4572 c0.091622 -0.045488 0.18012 -0.099004 0.27508 -0.13582 c0.20418 -0.07912 0.41396 -0.14395 0.61724 -0.22518 c0.36584 -0.14623 0.7479 -0.12953 1.1282 -0.11789 c0.217 0.0066406 0.4128 0.089316 0.58392 0.2271 c0.52518 0.42286 1.0215 0.87866 1.5094 1.3428 z M3.3044 13.2162 c0.022832 0.15846 0.063028 0.3169 0.063516 0.47554 c0.00085938 0.29902 0.10893 0.58414 0.070468 0.93454 c0.093106 -0.10846 0.096192 -0.20046 0.16596 -0.26202 c0.1825 -0.16104 0.321 -0.35578 0.38282 -0.5987 c0.01582 -0.06211 0.050294 -0.12209 0.086718 -0.1759 c0.13494 -0.1993 0.28032 -0.39176 0.40992 -0.59438 c0.088164 -0.13781 0.2086 -0.25916 0.24346 -0.42772 c-0.12561 0.084336 -0.21668 0.20094 -0.31202 0.31666 c-0.11404 0.1384 -0.20414 0.30546 -0.39408 0.38814 c0.0014258 -0.10643 0.091972 -0.17152 0.091562 -0.26528 c-0.11861 0.071386 -0.20274 0.16959 -0.26928 0.2939 c-0.083184 0.15539 -0.17734 0.30918 -0.34442 0.39452 c0.032188 -0.062852 0.060352 -0.12828 0.098144 -0.18756 c0.27246 -0.42746 0.63446 -0.79206 0.87226 -1.2456 c0.026426 -0.05043 0.061876 -0.10426 0.0908 -0.15859 c0.025234 -0.047382 0.049454 -0.041368 0.075118 0.030938 c0.013281 0.037422 0.030372 0.042774 0.061152 0.038144 c0.084512 -0.012715 0.11184 -0.058086 0.07834 -0.1375 c0.02836 -0.015938 0.056718 -0.031856 0.085098 -0.047812 l0.0024805 0 c0.01418 -0.0092578 0.0283 -0.01082 0.042402 0.00015625 l0.0020703 0 c0.081992 -0.12658 0.12189 -0.27486 0.21784 -0.39674 c0.040918 -0.052012 0.10035 -0.15783 0.04295 -0.21048 c-0.0683 -0.062656 -0.1025 0.07539 -0.17359 0.081622 c-0.031446 0.099434 -0.06914 0.19537 -0.18322 0.28638 c0.0055274 -0.11283 0.097128 -0.16076 0.09289 -0.23998 c-0.12699 0.023144 -0.19307 0.12111 -0.26266 0.2148 c-0.028632 0.015703 -0.057226 0.031368 -0.08582 0.04707 c-0.026894 0.082304 -0.052676 0.18123 -0.13346 0.2098 c-0.091074 0.032226 -0.13891 0.087578 -0.18406 0.16207 c-0.010117 0.016699 -0.04918 0.01584 -0.076192 0.022462 c-0.002168 0.014512 -0.004375 0.029062 -0.006582 0.043574 c-0.07539 0.012695 -0.11973 0.065332 -0.17416 0.11531 c-0.14781 0.13574 -0.265 0.29908 -0.44712 0.40676 c-0.16412 0.097012 -0.25994 0.2731 -0.2293 0.48588 z M4.9082 11.502 c0.027852 -0.013691 0.055684 -0.027402 0.083496 -0.041094 c-0.050976 -0.03041 -0.07213 -0.0039844 -0.083496 0.041094 z M4.9462 12.257200000000001 c-0.045274 0.029316 -0.077442 0.067206 -0.081524 0.12354 c0.048554 -0.027188 0.074688 -0.069082 0.081524 -0.12354 z M4.8142 12.4326 c-0.051426 0.02666 -0.076074 0.070528 -0.082012 0.12641 c0.045352 -0.03045 0.075468 -0.070762 0.082012 -0.12641 z M4.3442 12.7372 c-0.002754 -0.011367 -0.0055078 -0.022734 -0.0082422 -0.034102 c-0.010176 0.0072266 -0.024648 0.012344 -0.029512 0.022188 c-0.0078516 0.015898 -0.015332 0.03916 0.014473 0.041094 c0.0070898 0.00046876 0.015469 -0.018906 0.023282 -0.02918 z M4.1644 12.9666 c0.015645 -0.012461 0.033222 -0.032578 0.012422 -0.047656 c-0.019941 -0.014492 -0.036172 0.0077734 -0.043926 0.026036 c-0.0072656 0.017109 -0.010859 0.035782 -0.015508 0.053984 c0.015859 -0.010527 0.032168 -0.020528 0.047012 -0.032364 z M3.4318 18.4561 c-0.0067774 0.085156 -0.032714 0.13404 0.039864 0.1498 c-0.0095118 -0.035722 -0.018359 -0.068964 -0.039864 -0.1498 z M3.598 18.8642 l0.0030078 -0.015879 l-0.014746 0.0060352 z M3.5964 18.4498 c0.0025586 0.015645 -0.005664 0.044258 0.026582 0.036582 c0.004375 -0.0010547 0.0033984 -0.024512 0.0050196 -0.038692 c-0.0088086 -0.011758 0.0072852 -0.043144 -0.025918 -0.035626 c-0.0047852 0.0010938 -0.0077344 0.025214 -0.0056836 0.037734 z M4.526 18.4836 c0.0035938 -0.004629 0.010723 -0.012832 0.010215 -0.01332 c-0.0071876 -0.007207 -0.01543 -0.01334 -0.023418 -0.019746 c-0.0036132 0.0046876 -0.007207 0.009375 -0.010898 0.01416 c0.0080468 0.006289 0.016074 0.012598 0.024102 0.018906 z M4.516 18.0656 c0.012617 0.010332 0.023008 0.031212 0.042988 0.0061328 c-0.014316 -0.0020508 -0.028672 -0.004082 -0.042988 -0.0061328 z M4.729 18.2635 c0.0039062 -0.0023438 0.004121 -0.010781 0.005996 -0.016445 c-0.025176 -0.0025586 -0.030156 0.018008 -0.040078 0.032968 c0.011582 -0.0051562 0.02332 -0.01002 0.034082 -0.016523 z M4.8208 18.1003 c0.058222 -0.0049804 0.12516 -0.00033204 0.10863 -0.097872 c-0.057832 0.01457 -0.087266 0.051992 -0.10863 0.097872 z M4.9046 17.8844 l0.0019922 0.002461 s-0.001875 -0.0024414 -0.0019922 -0.002461 z M4.9458 17.7102 c0.010996 -0.0026562 0.019707 -0.014688 0.029394 -0.022968 c-0.0077734 -0.0084376 -0.017168 -0.024786 -0.02293 -0.023594 c-0.010723 0.002207 -0.019355 0.014648 -0.028868 0.022832 c0.0076172 0.008457 0.017148 0.025 0.022402 0.02373 z M5.0512 17.578 c0.025332 -0.004336 0.027128 -0.023868 0.027442 -0.043868 c-0.019922 0.0023632 -0.039492 0.0058008 -0.04088 0.031836 c-0.00021484 0.0039844 0.0095312 0.012695 0.013438 0.012031 z M5.2086 17.751 c0.0039062 -0.0002539 0.0073632 -0.0074804 0.011035 -0.011465 c-0.0025586 -0.0046876 -0.0042382 -0.012148 -0.0079296 -0.01334 c-0.0044336 -0.0014453 -0.013066 0.00078126 -0.015527 0.0043946 c-0.0089062 0.013086 -0.0038672 0.021406 0.012422 0.02041 z M5.3484 17.5272 c0.055976 -0.0057032 0.098712 -0.032226 0.12725 -0.081172 c-0.057324 0.0034376 -0.094708 0.038536 -0.12725 0.081172 z M5.3938 17.1052 c0.0011719 0.0045508 0.0050586 0.008418 0.0077734 0.012598 c-0.0029296 -0.0071876 -0.0058398 -0.014355 -0.0087696 -0.021544 c0.000039062 0.0030468 0.00023438 0.0060546 0.0009961 0.0089454 z M6.6928 14.7406 c-0.080254 0.068144 -0.030294 0.1334 -0.023672 0.19404 c0.03207 -0.056544 0.06918 -0.11291 0.023672 -0.19404 z M6.262 14.825199999999999 c-0.37926 0.20376 -0.82096 0.26512 -1.1779 0.51876 c-0.011816 0.0083594 -0.025528 0.015371 -0.039394 0.019316 c-0.24292 0.06912 -0.44936 0.20368 -0.65646 0.34398 c-0.14438 0.097774 -0.3171 0.16211 -0.49082 0.1757 c-0.11727 0.0091602 -0.16432 -0.13045 -0.2438 -0.20264 c-0.050528 -0.04588 -0.095704 -0.027794 -0.11258 0.038964 c-0.0088086 0.034824 -0.01457 0.072304 -0.011875 0.10787 c0.017598 0.2329 0.026212 0.46726 0.060118 0.69788 c0.045762 0.31116 -0.01002 0.62892 0.070566 0.93668 c0.0035742 0.013594 0.00097656 0.029394 -0.0011328 0.043788 c-0.041602 0.28542 -0.0089648 0.5665 0.049824 0.84588 c0.019551 0.09291 0.043536 0.185 0.011992 0.27984 c-0.025488 0.011953 -0.052618 0.021406 -0.075956 0.03668 c-0.017578 0.011484 -0.031778 0.035898 -0.011875 0.052032 c0.019473 0.01582 0.037558 -0.0073438 0.053652 -0.019961 c0.011172 -0.00875 0.02209 -0.017813 0.033106 -0.026758 c0.099804 0.08416 0.16646 0.0040626 0.22014 -0.057422 c0.14783 -0.16928 0.33342 -0.3035 0.4576 -0.49418 c0.025684 -0.039434 0.061758 -0.058652 0.10803 -0.060762 c0.038574 -0.073204 0.18043 -0.086406 0.12537 -0.21558 c-0.0028516 -0.0066796 0.013652 -0.025546 0.024844 -0.033672 c0.12645 -0.091758 0.20344 -0.22314 0.28936 -0.34888 c0.040196 -0.058848 0.10426 -0.097304 0.18123 -0.10102 c-0.015332 0.04082 -0.016582 0.081542 0.00035156 0.12223 c0.12951 -0.10326 0.1784 -0.2607 0.26398 -0.39328 c-0.00015625 -0.00041016 -0.00033204 -0.00080078 -0.00050782 -0.0012109 c0.00050782 -0.000097656 0.00097656 -0.00027344 0.0014844 -0.0003711 l0.0012305 -0.0019922 c0.000019531 0.00054688 0.000019531 0.0011133 0.000019531 0.0016797 c0.1523 -0.029824 0.18758 -0.19576 0.30582 -0.26496 c0.051036 -0.064062 0.090566 -0.13977 0.17287 -0.17162 l0.04084 -0.13078 c0.013125 0.053614 0.03586 0.10764 0.033614 0.16059 c-0.0024024 0.056348 -0.035332 0.078672 -0.072462 0.017168 c-0.046954 0.18961 -0.13566 0.35726 -0.26712 0.5018 c-0.062832 0.069062 -0.11121 0.14479 -0.12482 0.23876 c0.036934 -0.032676 0.078242 -0.061816 0.10893 -0.09959 c0.28016 -0.34506 0.55796 -0.69204 0.78998 -1.0726 c0.11006 -0.18051 0.24058 -0.35446 0.30106 -0.55648 c0.071114 -0.2376 0.15693 -0.46896 0.24264 -0.70078 c0.023028 -0.062286 0.045586 -0.12332 0.047812 -0.18932 c0.0011523 -0.033614 0.012461 -0.078516 -0.035058 -0.09209 c-0.051132 -0.014609 -0.083086 0.016602 -0.10191 0.05961 c-0.017461 0.039922 -0.027832 0.08289 -0.044746 0.12309 c-0.064336 0.15273 -0.13006 0.30488 -0.2047 0.47938 c-0.035118 -0.15547 -0.012285 -0.2688 0.077442 -0.3655 l0 -0.046309 c0.002207 -0.012402 0.0034766 -0.024902 0.0038282 -0.037598 c-0.11328 -0.002832 -0.13188 0.093008 -0.16988 0.16744 c-0.045098 0.08834 -0.050664 0.1967 -0.13338 0.266 c-0.0046876 -0.15828 0.083046 -0.29052 0.12418 -0.4359 l-0.0028126 0.0025586 l0.000058594 -0.000058594 c-0.023788 -0.000078126 -0.0010352 0.0030078 0.0010742 -0.0098242 c0.00054688 0.0023046 0.0010547 0.0045704 0.0015625 0.006836 c0.028144 -0.032618 0.068476 -0.066816 0.055626 -0.10939 c-0.022754 -0.075488 -0.085508 -0.027714 -0.13088 -0.025684 c-0.050626 0.0022656 -0.10816 -0.00083984 -0.15016 0.021718 z M5.7026 16.8356 c0.00029296 0.0012305 0.00044922 0.0025 0.00083984 0.0036524 c0.0014453 0.0041992 0.0044726 0.007832 0.0068164 0.011719 c-0.002539 -0.0051172 -0.0050976 -0.010254 -0.0076562 -0.015371 z M5.8738 16.6554 c0.000058594 0.010605 0.00011719 0.021152 0.00019531 0.031718 c0.0025196 -0.0070118 0.0050586 -0.014043 0.0060156 -0.02127 c0.00041016 -0.0031446 -0.003164 -0.006836 -0.006211 -0.010449 z M5.2966 11.7342 c-0.011758 0.02293 -0.023516 0.04586 -0.035176 0.068868 c0.018164 -0.019746 0.03166 -0.041816 0.035176 -0.068868 z M5.2944 11.2062 c-0.016406 0.0096484 -0.046602 0.011699 -0.020918 0.044648 z M5.9348 13.7552 c-0.17346 -0.04287 -0.33196 0.02418 -0.49928 0.013008 c-0.059278 -0.0039648 -0.11951 0.04789 -0.1202 0.15533 c0.21348 -0.058008 0.41648 -0.11318 0.61948 -0.16834 z M5.3752 11.0636 l0.013418 -0.0057618 l-0.010605 -0.0087304 z M5.4302 11.5486 l0.0022656 0.002207 s-0.0022462 -0.0022266 -0.0022656 -0.002207 z M5.5188 11.4118 c0 0 0.0011719 0.002754 0.0014453 0.002832 z M6.9608 6.247999999999999 c0.055118 -0.10379 -0.019141 -0.17352 -0.14855 -0.16271 c-0.0725 0.0060352 -0.14381 0.025214 -0.21592 0.036836 c-0.21492 0.034628 -0.38446 0.17529 -0.58324 0.24848 c-0.37702 0.13877 -0.72694 0.33368 -1.0697 0.54026 c-0.13096 0.078926 -0.2402 0.19561 -0.3741 0.26758 c-0.24204 0.13008 -0.43348 0.32622 -0.63334 0.5013 c-0.24014 0.21038 -0.5022 0.39466 -0.73142 0.61896 c-0.17258 0.16887 -0.31968 0.32204 -0.27888 0.59738 c0.061778 0.417 0.047364 0.84124 0.10861 1.2611 c0.063184 0.43298 0.071856 0.8738 0.1035 1.311 c0.030058 0.41542 0.074648 0.82882 0.11326 1.2793 c0.28224 -0.27828 0.46952 -0.58768 0.65776 -0.88534 c0.25828 -0.4084 0.55076 -0.79186 0.81052 -1.1979 c0.18887 -0.2952 0.36454 -0.59886 0.55518 -0.89284 c0.17152 -0.26448 0.3076 -0.5507 0.47778 -0.8128 c0.2405 -0.3704 0.40282 -0.77704 0.61434 -1.1595 c0.096328 -0.17424 0.14473 -0.36808 0.23642 -0.5392 c0.17184 -0.32072 0.1877 -0.69164 0.35778 -1.0119 z M5.9108 16.5152 l0.0026758 0.0023242 c-0.0003711 0.00125 -0.00076172 0.0024804 -0.0011523 0.0037304 c-0.00048828 -0.0020118 -0.0010547 -0.004043 -0.0015234 -0.0060546 z M5.132 17.234 c0.023126 0.021172 0.0013086 0.046816 -0.0041016 0.07088 c-0.02332 -0.010527 -0.053652 -0.017891 -0.043554 -0.052696 c0.0058398 -0.020136 0.031172 -0.033242 0.047656 -0.018184 z M5.128 17.3048 c0.00064454 0.00027344 0.0012695 0.00052734 0.001875 0.00082032 l-0.0027148 0.0026172 c0.00017578 -0.0011328 0.00058594 -0.0022852 0.00083984 -0.0034376 z M6.1816 16.1618 c-0.00011719 0.0016211 -0.00021484 0.0032226 -0.00041016 0.0047852 l-0.003125 -0.0026368 c0.0011328 -0.00076172 0.0023632 -0.0014453 0.0035352 -0.0021484 z M6.2458 16.0926 c-0.010996 0.016113 -0.020586 0.033496 -0.033574 0.04787 c-0.0080664 0.0089648 -0.019902 0.01457 -0.030606 0.021172 c0.0010352 -0.012363 0.0006836 -0.025294 0.0053516 -0.036094 c0.0076562 -0.017754 0.019434 -0.033906 0.031446 -0.04918 c0.00085938 -0.0010742 0.017871 0.010527 0.027382 0.01623 z M6.4886 15.5542 l0.0029296 0.0029102 c-0.001875 0.0017383 -0.0039062 0.0033594 -0.0060352 0.0049024 c0.00095704 -0.0026954 0.0019531 -0.005293 0.0031054 -0.0078126 z M6.4856 15.562000000000001 c-0.012422 0.03498 -0.010254 0.081504 -0.06789 0.082462 c-0.0096484 -0.055742 0.038614 -0.061152 0.06789 -0.082462 z M6.517 15.525400000000001 c-0.0056054 0.0068164 -0.011934 0.013047 -0.018359 0.019199 c0.0064258 -0.01166 0.012871 -0.02334 0.019297 -0.035 c-0.00017578 0.005371 0.0017773 0.0125 -0.0009375 0.015801 z M6.4886 15.5542 c0.0032422 -0.0032422 0.006582 -0.0063868 0.0099024 -0.0095898 c-0.0023242 0.0041992 -0.004629 0.008379 -0.0069532 0.012578 c0 0 -0.0029296 -0.0029102 -0.0029492 -0.0029882 z M5.3476 17.0038 l-0.002168 -0.0023046 c0.0017383 -0.0027344 0.0035156 -0.0054492 0.005293 -0.008164 c-0.0010352 0.0034766 -0.0020704 0.0069726 -0.003125 0.010469 l0 0 z M5.3634 16.9502 c0.00125 0.0055078 0.0052148 0.012324 0.0033008 0.01625 c-0.0045312 0.0093554 -0.010352 0.018086 -0.016113 0.026856 c0.0042774 -0.014355 0.0085352 -0.02873 0.012813 -0.043106 z M6.1812 16.1666 c-0.00078126 0.0019727 -0.0025782 0.0036524 -0.0047852 0.0051368 c0.00054688 -0.0025976 0.0010938 -0.0052148 0.0016406 -0.007832 c0 0 0.003125 0.0026368 0.0031446 0.0026954 z M6.1704 16.2012 c-0.024492 -0.018105 -0.0042774 -0.022226 0.0060546 -0.029414 c-0.0020118 0.0098046 -0.004043 0.019609 -0.0060546 0.029414 z M6.0584 16.5152 c-0.00085938 0.0033984 -0.0017188 0.0067774 -0.0025782 0.010156 l-0.0027148 -0.0029492 c0.0016797 -0.0024218 0.0035546 -0.0047852 0.005293 -0.007207 z M6.0632 16.4962 c-0.00015625 0.0040626 0.00076172 0.0086328 -0.00076172 0.01207 c-0.0010547 0.0024218 -0.0025196 0.004668 -0.0041016 0.006836 c0.0016211 -0.0063086 0.0032422 -0.012598 0.0048632 -0.018906 z M6.053 16.5224 c0 0 0.0026758 0.0029688 0.0025586 0.0028516 l-0.0067968 -0.00064454 c0.0014258 -0.00076172 0.0028126 -0.0013672 0.0042382 -0.002207 z M6.0488 16.5246 c-0.027422 0.014805 -0.053438 0.01543 -0.077304 -0.0074024 c0.025742 0.0024414 0.051484 0.0048828 0.077304 0.0074024 z M6.3606 15.3774 c0 0 0.0028516 0.0025 0.002754 0.0024218 c-0.0009961 -0.00083984 -0.001875 -0.0016406 -0.002754 -0.0024218 z M6.4834 14.92 c0.002539 0.0048828 0.0031446 0.0086914 0.0026368 0.011621 c-0.0008789 -0.0038672 -0.0017578 -0.007754 -0.0026368 -0.011621 z M5.9654 16.5166 l-0.00015625 0.00015625 c-0.017305 0.0003711 -0.034472 0.00058594 -0.05166 0.00078126 c0 0 -0.0026954 -0.0023242 -0.0025782 -0.0022266 c0.019238 -0.0003125 0.03836 -0.00070312 0.057324 -0.0009961 c0.0010547 0.0010938 0.0021288 0.001875 0.0031836 0.002871 c-0.0020312 -0.00019531 -0.004082 -0.00039062 -0.0061132 -0.00058594 z M5.13 17.3614 c0 0 -0.000097656 -0.00013672 -0.00011719 -0.00017578 c-0.0012305 0.000058594 -0.0024024 0.0003125 -0.0036328 0.00035156 c0.0003711 -0.00095704 0.00064454 -0.0019336 0.0010156 -0.0028906 l-0.000097656 -0.000097656 c-0.000078126 -0.016836 -0.000019531 -0.033574 0.000019531 -0.050312 c0 0 0.0026954 -0.0025976 0.0026172 -0.0025 c0.000058594 0.018652 0.00017578 0.037188 0.00019531 0.055626 z M3.6052 14.0058 c-0.026836 0.07791 -0.046114 0.12996 -0.1232 0.15365 c-0.0086718 -0.088536 0.021544 -0.1318 0.1232 -0.15365 z M3.8508 13.64 c-0.0059376 0.0055664 -0.03166 0.0024218 -0.035704 -0.0042578 c-0.035722 -0.059044 -0.010254 -0.10566 0.0333 -0.14729 c0.014063 0.050508 0.056464 0.10074 0.0024024 0.15154 z M3.8472 13.484200000000001 l0.0026954 0.0027734 c-0.00050782 0.00046876 -0.00097656 0.00095704 -0.0014844 0.0014453 c-0.00039062 -0.0013867 -0.00085938 -0.0028126 -0.0012109 -0.0041992 l0 -0.000019531 z M3.986 13.395 c-0.0052734 0.0022656 -0.010527 0.0045312 -0.015801 0.0067578 c-0.0016406 -0.0052734 -0.0062696 -0.013652 -0.0044922 -0.015371 c0.013398 -0.012891 0.020704 -0.0094532 0.020294 0.0086132 z M4.7718 12.036999999999999 c-0.0008789 -0.0026368 -0.0016992 -0.0052734 -0.002539 -0.0079296 c0.0019336 0.0016602 0.0037696 0.003379 0.0053906 0.0052344 c0 0 -0.0028516 0.002754 -0.0028516 0.0026954 z M4.7426 11.9868 c0.0051368 0.0028906 0.01293 0.0045508 0.014883 0.0088476 c0.0048438 0.010703 0.0082422 0.02205 0.011777 0.03334 c-0.013145 -0.011191 -0.031524 -0.018848 -0.02666 -0.042188 z" fill="#5171FF"></path></g><g id="SvgjsG3689" featurekey="jxYttZ-0" transform="matrix(8.954152868222732,0,0,8.954152868222732,119.28367058852623,-20.935522133847208)" fill="#393E46"><path d="M1.08 11.92 l0.46 -1.1 l0.5 -1.04 c0.04 -0.08 0.36 -0.66 0.46 -0.82 c0.08 -0.12 0.44 -0.7 0.52 -0.84 c0.88 -1.28 3 -3.66 4.76 -3.66 c0.62 0 1.02 0.4 1.02 1 c0 0.72 -0.5 1.58 -0.92 2.14 l-0.52 0.7 l-0.7 0.78 l-0.94 0.98 l-0.98 0.92 l-1.88 1.56 l-0.02 0.02 l-0.2 0.68 l-0.26 1.1 c-0.12 0.46 -0.18 0.98 -0.18 1.48 c0 0.52 0.08 1.3 0.78 1.3 c0.46 0 0.94 -0.36 1.28 -0.64 c0.1 -0.1 0.46 -0.4 0.5 -0.44 l0.72 -0.72 l1.24 -1.42 l1.4 -1.8 l0.1 -0.1 c0.02 -0.02 0.04 0 0.06 0 c0.16 0 0.32 0.08 0.32 0.26 c0 0.04 0 0.06 -0.02 0.08 l-1.46 1.94 l-1.32 1.52 l-0.92 0.9 c-0.04 0.06 -0.42 0.38 -0.52 0.48 c-0.72 0.58 -1.74 1.32 -2.74 1.32 c-1.2 0 -1.54 -1.14 -1.54 -2.16 c0 -0.96 0.2 -2.02 0.5 -2.94 z M5.8 6.460000000000001 c-0.46 0.54 -0.9 1.14 -1.22 1.78 l-0.5 0.96 c-0.08 0.16 -0.78 1.84 -0.78 1.94 l0 0.02 l1.4 -1.14 l1.1 -1 l0.72 -0.74 c0.06 -0.06 0.42 -0.5 0.52 -0.64 c0.04 -0.04 0.3 -0.4 0.4 -0.52 c0.24 -0.36 0.68 -1.12 0.68 -1.6 c0 -0.26 -0.14 -0.42 -0.38 -0.42 c-0.52 0 -1.26 0.64 -1.58 0.96 c-0.06 0.06 -0.3 0.34 -0.36 0.4 z M7.04 15.9 c0 -0.9 0.52 -1.86 0.98 -2.6 c0.74 -1.16 2.24 -3.02 3.8 -3.02 c0.74 0 1.04 0.54 1.04 1.24 c0 0.9 -0.48 1.82 -0.9 2.6 c0.2 0 0.4 -0.06 0.58 -0.14 c0.92 -0.34 1.68 -1.08 2.22 -1.86 l0.02 -0.02 c0.24 0 0.32 0.04 0.4 0.3 c-0.04 0.08 -0.2 0.28 -0.2 0.3 c-0.02 0.02 -0.14 0.18 -0.18 0.22 c-0.78 0.92 -1.96 1.76 -3.2 1.76 l0 0.02 c-0.6 0.8 -2.08 2.64 -3.18 2.64 c-0.88 0 -1.38 -0.56 -1.38 -1.44 z M10.7 12.9 c0 0.38 0.06 0.88 0.42 1.12 c0.06 0.02 0.14 0.08 0.22 0.08 c0.46 -0.68 1 -1.76 1 -2.6 c0 -0.36 -0.14 -0.7 -0.54 -0.7 c-0.56 0 -0.94 0.92 -1.02 1.36 c-0.06 0.24 -0.08 0.48 -0.08 0.74 z M8.78 16 c0 0.16 0.04 0.32 0.22 0.32 c0.4 0 0.8 -0.36 1.04 -0.62 c0.06 -0.04 0.28 -0.26 0.32 -0.32 c0.06 -0.08 0.4 -0.48 0.48 -0.56 c0.02 -0.04 0.16 -0.22 0.18 -0.24 c0 -0.02 -0.26 -0.14 -0.3 -0.16 c-0.44 -0.28 -0.66 -0.74 -0.76 -1.26 l0 0.02 c-0.02 0 -0.16 0.24 -0.22 0.34 c-0.34 0.58 -0.96 1.78 -0.96 2.48 z M13.36 15.1 c0 -1.8 2.86 -4.28 4.56 -4.28 c0.94 0 1.32 0.72 1.32 1.58 c0 0.82 -0.24 1.6 -0.48 2.36 l0 0.02 s0.4 -0.32 0.56 -0.44 c0.16 -0.14 0.68 -0.6 0.72 -0.64 l0.66 -0.66 c0.38 -0.38 0.76 -0.84 1.06 -1.28 c0.22 0 0.38 0.02 0.38 0.28 l-0.64 0.8 c-0.06 0.08 -1.14 1.2 -1.22 1.26 l-0.78 0.68 l-1.04 0.78 l-1.14 2.74 l-0.82 1.64 l-0.5 0.86 c-0.04 0.04 -0.26 0.36 -0.32 0.46 c-0.78 1.04 -1.76 1.76 -3.12 1.76 c-0.74 0 -1.28 -0.3 -1.28 -1.1 c0 -1.44 1.36 -2.86 2.36 -3.68 c0.34 -0.34 0.78 -0.64 1.18 -0.9 l1.76 -1.1 l0.6 -1.5 c-0.58 0.44 -2.08 1.46 -2.84 1.46 c-0.64 0 -0.98 -0.52 -0.98 -1.1 z M14.76 15.2 c0 0.12 0.08 0.14 0.18 0.14 c0.26 0 0.88 -0.38 1.08 -0.58 l0.9 -0.72 l0.76 -0.68 c0 -0.02 0.12 -0.34 0.16 -0.46 c0.08 -0.26 0.14 -0.54 0.14 -0.82 c0 -0.14 0 -0.28 -0.16 -0.34 l-0.06 0 c-0.38 0 -0.84 0.4 -1.08 0.64 c-0.58 0.52 -1.92 1.98 -1.92 2.82 z M18.740000000000002 14.780000000000001 l0 0 z M13.56 18.92 c-0.76 0.66 -1.76 1.8 -1.76 2.9 c0 0.32 0.12 0.58 0.48 0.58 c0.5 0 0.98 -0.34 1.3 -0.66 c0.32 -0.4 0.72 -0.82 0.98 -1.28 l0.68 -1.2 l1.06 -2.32 l-1.36 0.88 c-0.06 0.04 -0.56 0.42 -0.7 0.52 c-0.1 0.08 -0.58 0.48 -0.68 0.58 z M21.92 11.64 c0.16 0.08 0.3 0.1 0.46 0.16 c0.08 0.04 0.46 0.18 0.54 0.2 c0.1 0.06 0.18 0.14 0.18 0.24 c0 0.06 -0.02 0.12 -0.06 0.16 l-0.26 0.5 l-0.82 1.76 c-0.02 0.04 -0.12 0.34 -0.16 0.42 c-0.08 0.24 -0.16 0.48 -0.16 0.74 c0 0.02 -0.02 0.1 0.04 0.1 c0.14 0 0.32 -0.14 0.4 -0.2 c0.04 -0.04 0.28 -0.22 0.32 -0.28 c0.02 0 0.08 -0.06 0.1 -0.08 c0.12 -0.12 0.5 -0.5 0.56 -0.54 c0.42 -0.46 0.82 -0.96 1.04 -1.54 l0.56 -1.48 s0.22 0.04 0.28 0.04 c0.32 0.06 0.88 0.26 0.88 0.66 c0 0.12 -0.04 0.24 -0.06 0.34 l-0.84 2.42 l0.36 -0.26 l0.78 -0.68 l0.54 -0.54 c0.1 -0.1 0.42 -0.46 0.46 -0.5 l0.62 -0.78 l0.04 0 c0.16 0 0.28 0.08 0.28 0.24 l0 0.04 l-0.54 0.68 l-0.62 0.68 l-0.62 0.6 l-0.76 0.64 l-0.78 0.58 c-0.02 0.02 -0.04 0.04 -0.04 0.06 l-0.8 1.96 l-0.76 1.62 l-0.46 0.86 l-0.44 0.66 c-0.48 0.74 -1.08 1.22 -1.88 1.54 c-0.36 0.12 -0.72 0.2 -1.1 0.2 c-0.68 0 -1.16 -0.3 -1.16 -1.02 c0 -1.42 1.46 -2.84 2.46 -3.62 c0.12 -0.1 0.54 -0.42 0.58 -0.44 l1.84 -1.18 l0.12 -0.3 l0.34 -1.02 l-0.54 0.52 c-0.02 0 -0.22 0.18 -0.3 0.24 c-0.36 0.28 -0.82 0.58 -1.28 0.58 c-0.6 0 -0.96 -0.58 -0.96 -1.12 c0 -0.32 0.3 -1.5 0.52 -1.72 l0.96 -1.86 c0.04 -0.06 0.12 -0.26 0.14 -0.28 z M22.680000000000003 17.259999999999998 l-0.02 0 l-0.26 0.16 l-0.54 0.4 l-0.92 0.78 l-0.78 0.74 c-0.06 0.06 -0.38 0.38 -0.46 0.48 c-0.38 0.38 -0.98 1.18 -0.98 1.68 c0 0.34 0.32 0.52 0.64 0.52 c0.88 0 2.1 -1.84 2.34 -2.58 l0.98 -2.2 c-0.02 0 -0.02 0.02 0 0.02 z" fill="#393E46"></path></g></svg>